
<svg width="295" height="88" viewBox="0 0 295 88" fill="none" xmlns="http://www.w3.org/2000/svg">
<path d="M284.084 87.3132H10.916C4.90106 87.3132 0 82.4692 0 76.5242V11.7462C0 5.80121 4.90106 0.957169 10.916 0.957169H284.084C290.099 0.957169 295 5.80121 295 11.7462V76.5242C295.044 82.4252 290.099 87.3132 284.084 87.3132Z" fill="black"/>
<path d="M284.084 2.63151C289.163 2.63151 293.262 6.68289 293.262 11.7031V76.4811C293.262 81.5013 289.163 85.5527 284.084 85.5527H10.9161C5.83684 85.5527 1.73777 81.5013 1.73777 76.4811V11.7031C1.73777 6.68289 5.83684 2.63151 10.9161 2.63151H284.084ZM284.084 0.914078H10.9161C4.90119 0.914078 0.00012207 5.75813 0.00012207 11.7031V76.4811C0.00012207 82.4261 4.90119 87.2701 10.9161 87.2701H284.084C290.099 87.2701 295 82.4261 295 76.4811V11.7031C295.044 5.75813 290.099 0.914078 284.084 0.914078Z" fill="#A6A6A6"/>
<path d="M103.635 23.0197C103.635 24.8252 103.101 26.2785 102.031 27.3353C100.784 28.6124 99.1799 29.2729 97.2195 29.2729C95.3481 29.2729 93.6996 28.6124 92.4075 27.3353C91.0709 26.0142 90.4025 24.4289 90.4025 22.4913C90.4025 20.5537 91.0709 18.9684 92.4075 17.6913C93.7442 16.4142 95.3481 15.7537 97.2195 15.7537C98.1551 15.7537 99.0462 15.9298 99.8928 16.2821C100.739 16.6344 101.452 17.1188 101.942 17.7353L100.784 18.8803C99.8928 17.8674 98.7343 17.339 97.1749 17.339C95.7937 17.339 94.5907 17.8234 93.6105 18.7922C92.5857 19.761 92.0956 20.994 92.0956 22.5353C92.0956 24.0766 92.5857 25.3096 93.6105 26.2785C94.6353 27.2473 95.8383 27.7317 97.1749 27.7317C98.6452 27.7317 99.8482 27.2473 100.828 26.2785C101.452 25.6619 101.853 24.7812 101.942 23.6363H97.1749V22.095H103.502C103.591 22.4032 103.635 22.7115 103.635 23.0197Z" fill="white" stroke="white" stroke-width="0.199309" stroke-miterlimit="10"/>
<path d="M113.705 17.6031H107.735V21.6985H113.126V23.2398H107.735V27.3352H113.705V28.9206H106.041V15.9738H113.705V17.6031Z" fill="white" stroke="white" stroke-width="0.199309" stroke-miterlimit="10"/>
<path d="M120.834 28.9645H119.141V17.603H115.487V16.0177H124.487V17.603H120.834V28.9645Z" fill="white" stroke="white" stroke-width="0.199309" stroke-miterlimit="10"/>
<path d="M130.992 28.9645V16.0177H132.685V28.9645H130.992Z" fill="white" stroke="white" stroke-width="0.199309" stroke-miterlimit="10"/>
<path d="M140.126 28.9645H138.433V17.603H134.779V16.0177H143.779V17.603H140.126V28.9645Z" fill="white" stroke="white" stroke-width="0.199309" stroke-miterlimit="10"/>
<path d="M160.889 27.2911C159.596 28.6122 157.993 29.2728 156.077 29.2728C154.161 29.2728 152.557 28.6122 151.265 27.2911C149.973 25.97 149.349 24.3847 149.349 22.4911C149.349 20.5975 149.973 18.9682 151.265 17.6911C152.557 16.37 154.161 15.7095 156.077 15.7095C157.993 15.7095 159.596 16.37 160.889 17.6911C162.181 19.0122 162.849 20.5975 162.849 22.4911C162.804 24.3847 162.181 26.0141 160.889 27.2911ZM152.512 26.2343C153.492 27.2031 154.651 27.6875 156.077 27.6875C157.458 27.6875 158.661 27.2031 159.641 26.2343C160.621 25.2654 161.111 24.0324 161.111 22.4911C161.111 20.9939 160.621 19.7168 159.641 18.748C158.661 17.7792 157.502 17.2948 156.077 17.2948C154.651 17.2948 153.492 17.7792 152.512 18.748C151.532 19.7168 151.042 20.9498 151.042 22.4911C151.042 24.0324 151.532 25.2654 152.512 26.2343Z" fill="white" stroke="white" stroke-width="0.199309" stroke-miterlimit="10"/>
<path d="M165.166 28.9645V16.0177H167.216L173.587 26.1021H173.676L173.587 23.592V16.0177H175.28V28.9645H173.542L166.859 18.3957H166.77L166.859 20.9058V28.9645H165.166Z" fill="white" stroke="white" stroke-width="0.199309" stroke-miterlimit="10"/>
<path d="M148.903 47.9004C143.779 47.9004 139.591 51.7756 139.591 57.1041C139.591 62.3885 143.779 66.3077 148.903 66.3077C154.027 66.3077 158.26 62.3885 158.26 57.1041C158.26 51.7316 154.072 47.9004 148.903 47.9004ZM148.903 62.6527C146.096 62.6527 143.646 60.3628 143.646 57.1041C143.646 53.8013 146.052 51.5554 148.903 51.5554C151.71 51.5554 154.161 53.8013 154.161 57.1041C154.161 60.3628 151.71 62.6527 148.903 62.6527ZM128.541 47.9004C123.418 47.9004 119.229 51.7756 119.229 57.1041C119.229 62.3885 123.418 66.3077 128.541 66.3077C133.665 66.3077 137.853 62.3885 137.853 57.1041C137.898 51.7316 133.71 47.9004 128.541 47.9004ZM128.541 62.6527C125.734 62.6527 123.284 60.3628 123.284 57.1041C123.284 53.8013 125.734 51.5554 128.541 51.5554C131.348 51.5554 133.799 53.8013 133.799 57.1041C133.799 60.3628 131.393 62.6527 128.541 62.6527ZM104.348 50.7187V54.638H113.794C113.526 56.8398 112.769 58.4252 111.655 59.5261C110.274 60.8912 108.135 62.3885 104.348 62.3885C98.5558 62.3885 94.0112 57.7646 94.0112 52.0398C94.0112 46.3151 98.5558 41.6912 104.348 41.6912C107.467 41.6912 109.784 42.9242 111.477 44.4655L114.239 41.7352C111.878 39.4893 108.759 37.816 104.348 37.816C96.3726 37.816 89.6893 44.2013 89.6893 52.0839C89.6893 59.9664 96.3726 66.3518 104.348 66.3518C108.67 66.3518 111.878 64.9426 114.417 62.3444C117.002 59.7903 117.848 56.1352 117.848 53.2288C117.848 52.304 117.759 51.4673 117.625 50.8068H104.348V50.7187ZM203.349 53.7132C202.592 51.6435 200.231 47.8563 195.374 47.8563C190.607 47.8563 186.597 51.5995 186.597 57.06C186.597 62.2123 190.518 66.2637 195.82 66.2637C200.097 66.2637 202.547 63.7096 203.572 62.2123L200.409 60.1426C199.34 61.6839 197.914 62.6967 195.82 62.6967C193.77 62.6967 192.255 61.772 191.32 59.9224L203.75 54.8582L203.349 53.7132ZM190.696 56.7958C190.607 53.2729 193.458 51.4233 195.552 51.4233C197.156 51.4233 198.538 52.216 199.028 53.3609L190.696 56.7958ZM180.582 65.6912H184.681V38.6967H180.582V65.6912ZM173.899 49.9261H173.765C172.829 48.8692 171.092 47.9004 168.864 47.9004C164.23 47.9004 159.953 51.9518 159.953 57.1041C159.953 62.2564 164.23 66.2637 168.864 66.2637C171.092 66.2637 172.829 65.2949 173.765 64.194H173.899V65.5151C173.899 69.038 171.983 70.9316 168.953 70.9316C166.458 70.9316 164.898 69.1701 164.275 67.6729L160.71 69.1261C161.735 71.5481 164.453 74.5426 168.953 74.5426C173.765 74.5426 177.775 71.7683 177.775 64.9866V48.4729H173.899V49.9261ZM169.22 62.6527C166.413 62.6527 164.052 60.3187 164.052 57.1041C164.052 53.8453 166.413 51.5114 169.22 51.5114C171.983 51.5114 174.166 53.8894 174.166 57.1041C174.166 60.3187 171.983 62.6527 169.22 62.6527ZM222.508 38.6967H212.751V65.6912H216.805V55.4747H222.508C227.053 55.4747 231.464 52.216 231.464 47.1077C231.464 41.9554 227.008 38.6967 222.508 38.6967ZM222.597 51.7316H216.805V42.4838H222.597C225.627 42.4838 227.365 44.9939 227.365 47.1077C227.365 49.1774 225.627 51.7316 222.597 51.7316ZM247.771 47.8563C244.83 47.8563 241.756 49.1334 240.508 51.9958L244.117 53.493C244.875 51.9958 246.345 51.5114 247.86 51.5114C249.954 51.5114 252.137 52.7884 252.137 54.9903V55.2545C251.38 54.8141 249.82 54.1976 247.86 54.1976C243.984 54.1976 239.974 56.3114 239.974 60.2747C239.974 63.8857 243.182 66.2197 246.746 66.2197C249.509 66.2197 251.023 64.9866 251.959 63.5775H252.093V65.6472H256.014V55.2985C256.103 50.4985 252.494 47.8563 247.771 47.8563ZM247.281 62.6527C245.944 62.6527 244.073 61.9921 244.073 60.3628C244.073 58.293 246.39 57.4563 248.395 57.4563C250.177 57.4563 251.023 57.8527 252.137 58.3811C251.825 60.8472 249.642 62.6527 247.281 62.6527ZM270.45 48.4288L265.771 60.1426H265.638L260.781 48.4288H256.37L263.633 64.7665L259.489 73.8821H263.766L274.994 48.4288H270.45ZM233.692 65.6912H237.791V38.6967H233.692V65.6912Z" fill="white"/>
<path d="M22.8123 17.2068C22.1885 17.8673 21.7875 18.9242 21.7875 20.2453V68.0252C21.7875 69.3463 22.144 70.4031 22.8123 71.0637L22.9905 71.1958L50.08 44.4215V43.8049L22.9905 17.0306L22.8123 17.2068Z" fill="url(#paint0_linear)"/>
<path d="M59.0802 53.3608L50.08 44.4214V43.8049L59.1247 34.8654L59.3475 34.9975L70.0407 41.0306C73.0705 42.748 73.0705 45.5663 70.0407 47.2838L59.3475 53.2728L59.0802 53.3608Z" fill="url(#paint1_linear)"/>
<path d="M59.3031 53.2288L50.0802 44.1132L22.8125 71.0197C23.8372 72.0765 25.4858 72.2087 27.3571 71.1518L59.3031 53.2288Z" fill="url(#paint2_linear)"/>
<path d="M59.3031 34.9975L27.3571 17.0746C25.4858 16.0177 23.8372 16.1498 22.8125 17.2067L50.0357 44.1132L59.3031 34.9975Z" fill="url(#paint3_linear)"/>
<defs>
<linearGradient id="paint0_linear" x1="47.647" y1="68.4898" x2="2.76916" y2="22.5475" gradientUnits="userSpaceOnUse">
<stop stop-color="#00A0FF"/>
<stop offset="0.0066" stop-color="#00A1FF"/>
<stop offset="0.2601" stop-color="#00BEFF"/>
<stop offset="0.5122" stop-color="#00D2FF"/>
<stop offset="0.7604" stop-color="#00DFFF"/>
<stop offset="1" stop-color="#00E3FF"/>
</linearGradient>
<linearGradient id="paint1_linear" x1="73.9491" y1="44.1019" x2="7.6925" y2="44.1019" gradientUnits="userSpaceOnUse">
<stop stop-color="#FFE000"/>
<stop offset="0.4087" stop-color="#FFBD00"/>
<stop offset="0.7754" stop-color="#FFA500"/>
<stop offset="1" stop-color="#FF9C00"/>
</linearGradient>
<linearGradient id="paint2_linear" x1="36.029" y1="57.1659" x2="-24.8288" y2="-5.13547" gradientUnits="userSpaceOnUse">
<stop stop-color="#FF3A44"/>
<stop offset="1" stop-color="#C31162"/>
</linearGradient>
<linearGradient id="paint3_linear" x1="-2.27297" y1="68.8979" x2="24.9014" y2="41.0793" gradientUnits="userSpaceOnUse">
<stop stop-color="#32A071"/>
<stop offset="0.0685" stop-color="#2DA771"/>
<stop offset="0.4762" stop-color="#15CF74"/>
<stop offset="0.8009" stop-color="#06E775"/>
<stop offset="1" stop-color="#00F076"/>
</linearGradient>
</defs>
</svg>
