
<svg width="295" height="88" viewBox="0 0 295 88" fill="none" xmlns="http://www.w3.org/2000/svg">
<path d="M293.049 76.9285C293.049 81.5392 289.325 85.2987 284.679 85.2987H11.0502C6.43945 85.2987 2.67993 81.5747 2.67993 76.9285V10.3212C2.67993 5.67498 6.40398 1.95093 11.0502 1.95093H284.679C289.29 1.95093 293.049 5.71044 293.049 10.3212V76.9285Z" fill="white"/>
<path d="M284.679 87.2137H11.0501C5.37532 87.2137 0.729126 82.603 0.729126 76.9282V10.3209C0.729126 4.61073 5.33985 0 11.0501 0H284.679C290.354 0 295 4.61073 295 10.3209V76.9282C295 82.603 290.354 87.2137 284.679 87.2137Z" fill="#A6A6A6"/>
<path d="M293.049 76.9285C293.049 81.5392 289.325 85.2987 284.679 85.2987H11.0502C6.43945 85.2987 2.67993 81.5747 2.67993 76.9285V10.3212C2.67993 5.67498 6.40398 1.95093 11.0502 1.95093H284.679C289.29 1.95093 293.049 5.71044 293.049 10.3212V76.9285Z" fill="black"/>
<path d="M66.4499 43.1636C66.3789 36.1411 72.1955 32.7008 72.4793 32.5589C69.1808 27.7709 64.0736 27.097 62.2647 27.0615C57.9732 26.6004 53.8236 29.6152 51.6246 29.6152C49.3902 29.6152 46.0208 27.097 42.4031 27.1679C37.7215 27.2389 33.359 29.9344 30.9827 34.1549C26.0528 42.7025 29.7414 55.2934 34.4585 62.2095C36.8348 65.6143 39.6012 69.3738 43.2189 69.232C46.7656 69.0901 48.0779 66.9621 52.3694 66.9621C56.59 66.9621 57.8668 69.232 61.5554 69.1256C65.3504 69.0546 67.7621 65.7207 70.032 62.3159C72.763 58.4499 73.8625 54.6195 73.898 54.4067C73.7916 54.3712 66.5208 51.5693 66.4499 43.1636Z" fill="white"/>
<path d="M59.4627 22.4861C61.378 20.1098 62.6903 16.8468 62.3001 13.5839C59.5337 13.6903 56.0934 15.4991 54.1072 17.8399C52.3338 19.897 50.7733 23.2664 51.1989 26.423C54.2845 26.6003 57.4766 24.8269 59.4627 22.4861Z" fill="white"/>
<path d="M117.771 68.7H112.805L110.11 60.1879H100.675L98.0864 68.7H93.2628L102.591 39.6879H108.372L117.771 68.7ZM109.294 56.6057L106.847 49.0157C106.598 48.2354 106.102 46.4266 105.393 43.5538H105.322C105.038 44.7951 104.577 46.604 103.938 49.0157L101.527 56.6057H109.294Z" fill="white"/>
<path d="M141.746 57.9888C141.746 61.5355 140.789 64.3729 138.838 66.43C137.1 68.2743 134.937 69.1964 132.383 69.1964C129.617 69.1964 127.63 68.2034 126.425 66.2172V77.212H121.778V54.6904C121.778 52.456 121.707 50.1506 121.601 47.8098H125.68L125.928 51.1437H125.999C127.56 48.661 129.9 47.3842 133.057 47.3842C135.54 47.3842 137.597 48.3418 139.228 50.3279C140.931 52.2431 141.746 54.7968 141.746 57.9888ZM137.029 58.1662C137.029 56.1445 136.568 54.4421 135.646 53.1298C134.653 51.7466 133.305 51.0727 131.603 51.0727C130.468 51.0727 129.404 51.4629 128.482 52.2077C127.56 52.988 126.921 53.981 126.637 55.1869C126.496 55.7544 126.425 56.2155 126.425 56.6056V60.0814C126.425 61.6065 126.886 62.8833 127.808 63.9473C128.73 65.0113 129.971 65.5079 131.461 65.5079C133.199 65.5079 134.582 64.834 135.54 63.4862C136.533 62.1385 137.029 60.3651 137.029 58.1662Z" fill="white"/>
<path d="M165.829 57.9888C165.829 61.5355 164.871 64.3729 162.92 66.43C161.182 68.2743 159.019 69.1964 156.465 69.1964C153.699 69.1964 151.713 68.2034 150.507 66.2172V77.212H145.861V54.6904C145.861 52.456 145.79 50.1506 145.683 47.8098H149.762L150.01 51.1437H150.081C151.642 48.661 153.983 47.3842 157.139 47.3842C159.622 47.3842 161.679 48.3418 163.311 50.3279C164.977 52.2431 165.829 54.7968 165.829 57.9888ZM161.076 58.1662C161.076 56.1445 160.615 54.4421 159.693 53.1298C158.7 51.7466 157.352 51.0727 155.65 51.0727C154.515 51.0727 153.451 51.4629 152.529 52.2077C151.606 52.988 151.003 53.981 150.684 55.1869C150.542 55.7544 150.471 56.2155 150.471 56.6056V60.0814C150.471 61.6065 150.932 62.8833 151.855 63.9473C152.777 64.9759 154.018 65.5079 155.508 65.5079C157.246 65.5079 158.629 64.834 159.586 63.4862C160.58 62.1385 161.076 60.3651 161.076 58.1662Z" fill="white"/>
<path d="M192.748 60.5781C192.748 63.0608 191.897 65.0469 190.159 66.6075C188.279 68.3099 185.619 69.1611 182.25 69.1611C179.129 69.1611 176.611 68.5582 174.731 67.3523L175.795 63.4864C177.816 64.6923 180.086 65.2952 182.498 65.2952C184.236 65.2952 185.619 64.9051 186.577 64.1248C187.534 63.3445 188.031 62.2805 188.031 60.9682C188.031 59.7978 187.641 58.8047 186.825 57.989C186.009 57.1732 184.697 56.4284 182.817 55.7545C177.745 53.8748 175.192 51.0729 175.192 47.4552C175.192 45.0789 176.078 43.1282 177.887 41.6031C179.696 40.0781 182.072 39.3333 185.016 39.3333C187.641 39.3333 189.875 39.7943 191.613 40.7165L190.443 44.5115C188.811 43.6248 186.931 43.1637 184.874 43.1637C183.243 43.1637 181.931 43.5538 181.044 44.3696C180.264 45.0789 179.873 45.9656 179.873 46.9942C179.873 48.1291 180.335 49.0867 181.221 49.8315C182.002 50.5054 183.385 51.2502 185.442 52.066C187.925 53.059 189.769 54.2295 190.939 55.5772C192.145 56.8895 192.748 58.5564 192.748 60.5781Z" fill="white"/>
<path d="M208.141 51.2856H202.998V61.4292C202.998 64.0183 203.885 65.2951 205.694 65.2951C206.509 65.2951 207.219 65.2242 207.751 65.0823L207.893 68.629C206.97 68.9837 205.765 69.161 204.275 69.161C202.431 69.161 201.012 68.5935 199.983 67.4941C198.955 66.3591 198.423 64.4794 198.423 61.8548V51.321H195.373V47.8453H198.423V44.0148L202.998 42.6316V47.8453H208.141V51.2856Z" fill="white"/>
<path d="M231.23 58.0598C231.23 61.2873 230.308 63.9119 228.463 65.969C226.548 68.097 223.995 69.161 220.803 69.161C217.717 69.161 215.27 68.1325 213.461 66.1109C211.652 64.0892 210.73 61.5001 210.73 58.4145C210.73 55.187 211.687 52.527 213.567 50.4344C215.447 48.3773 218.001 47.3488 221.157 47.3488C224.243 47.3488 226.69 48.3773 228.57 50.3989C230.343 52.3851 231.23 54.9387 231.23 58.0598ZM226.406 58.1662C226.406 56.251 225.981 54.6195 225.165 53.2363C224.207 51.5693 222.789 50.7536 220.98 50.7536C219.1 50.7536 217.681 51.5693 216.724 53.2363C215.908 54.6195 215.482 56.2865 215.482 58.2726C215.482 60.1879 215.908 61.8548 216.724 63.2026C217.717 64.8695 219.136 65.6853 220.944 65.6853C222.718 65.6853 224.101 64.8341 225.13 63.1671C225.981 61.7484 226.406 60.0815 226.406 58.1662Z" fill="white"/>
<path d="M246.339 51.8528C245.878 51.7818 245.381 51.7109 244.885 51.7109C243.253 51.7109 241.977 52.3139 241.09 53.5552C240.31 54.6547 239.919 56.0379 239.919 57.7049V68.6997H235.273V54.371C235.273 51.9592 235.238 49.7602 235.131 47.7741H239.175L239.352 51.7819H239.494C239.99 50.3986 240.771 49.2992 241.835 48.4479C242.863 47.7031 243.998 47.313 245.204 47.313C245.63 47.313 246.02 47.3485 246.374 47.3839L246.339 51.8528Z" fill="white"/>
<path d="M267.158 57.2439C267.158 58.0597 267.087 58.769 266.981 59.3365H253.042C253.078 61.3936 253.787 62.9896 255.064 64.0891C256.234 65.0467 257.759 65.5432 259.639 65.5432C261.696 65.5432 263.576 65.224 265.278 64.5502L266.023 67.7777C264.037 68.6289 261.696 69.0545 259.001 69.0545C255.773 69.0545 253.22 68.0969 251.34 66.1816C249.496 64.2664 248.573 61.7128 248.573 58.4853C248.573 55.3287 249.425 52.7041 251.163 50.6116C252.971 48.3771 255.419 47.2422 258.469 47.2422C261.483 47.2422 263.753 48.3771 265.314 50.6116C266.52 52.4559 267.158 54.6548 267.158 57.2439ZM262.725 56.038C262.76 54.6548 262.441 53.4844 261.838 52.4559C261.022 51.1436 259.781 50.5052 258.15 50.5052C256.624 50.5052 255.383 51.1436 254.461 52.3849C253.681 53.378 253.22 54.5839 253.078 56.0026L262.725 56.038Z" fill="white"/>
<path d="M107.024 29.2958H104.577L103.229 25.1106H98.583L97.3062 29.2958H94.9299L99.5051 15.038H102.343L107.024 29.2958ZM102.875 23.3373L101.669 19.6132C101.527 19.2231 101.314 18.3364 100.959 16.9177H100.924C100.782 17.5207 100.569 18.4073 100.25 19.6132L99.0795 23.3373H102.875Z" fill="white"/>
<path d="M118.515 19.0101L114.614 29.2956H112.38L108.62 19.0101H111.067L112.841 24.4366C113.124 25.3588 113.373 26.21 113.585 27.0257H113.656C113.834 26.2809 114.082 25.4297 114.401 24.4366L116.139 19.0101H118.515Z" fill="white"/>
<path d="M126.815 29.2959L126.637 28.1255H126.567C125.857 29.0831 124.864 29.5441 123.552 29.5441C121.708 29.5441 120.395 28.2673 120.395 26.5294C120.395 23.9758 122.594 22.6635 126.389 22.6635V22.4862C126.389 21.1384 125.68 20.4646 124.261 20.4646C123.233 20.4646 122.346 20.7128 121.566 21.2448L121.105 19.7552C122.062 19.1523 123.233 18.8685 124.651 18.8685C127.347 18.8685 128.695 20.2872 128.695 23.1246V26.9196C128.695 27.9481 128.73 28.7639 128.836 29.3668L126.815 29.2959ZM126.496 24.1886C123.942 24.1886 122.701 24.7915 122.701 26.2457C122.701 27.3097 123.374 27.8417 124.261 27.8417C125.432 27.8417 126.496 26.955 126.496 25.7492V24.1886Z" fill="white"/>
<path d="M133.802 17.3081C133.057 17.3081 132.454 16.7052 132.454 15.9249C132.454 15.1446 133.057 14.5771 133.837 14.5771C134.618 14.5771 135.256 15.1446 135.221 15.9249C135.256 16.7761 134.653 17.3081 133.802 17.3081ZM135.008 29.296H132.738V19.0105H135.008V29.296Z" fill="white"/>
<path d="M141.356 29.2958H139.051V14.2932H141.321V29.2958H141.356Z" fill="white"/>
<path d="M151.074 29.2959L150.897 28.1255H150.826C150.117 29.0831 149.124 29.5441 147.811 29.5441C145.967 29.5441 144.655 28.2673 144.655 26.5294C144.655 23.9758 146.854 22.6635 150.649 22.6635V22.4862C150.649 21.1384 149.939 20.4646 148.521 20.4646C147.492 20.4646 146.606 20.7128 145.825 21.2448L145.364 19.7552C146.322 19.1523 147.492 18.8685 148.911 18.8685C151.606 18.8685 152.954 20.2872 152.954 23.1246V26.9196C152.954 27.9481 152.99 28.7639 153.096 29.3668H151.074V29.2959ZM150.755 24.1886C148.202 24.1886 146.96 24.7915 146.96 26.2457C146.96 27.3097 147.634 27.8417 148.521 27.8417C149.691 27.8417 150.755 26.955 150.755 25.7492V24.1886Z" fill="white"/>
<path d="M162.247 29.5441C160.793 29.5441 159.693 28.9411 159.019 27.7353H158.984L158.842 29.3313H156.891C156.962 28.5155 156.962 27.5579 156.962 26.5648V14.2932H159.267V20.5H159.303C159.977 19.365 161.076 18.7975 162.566 18.7975C165.049 18.7975 166.786 20.9256 166.786 24.0112C166.786 27.2033 164.836 29.5441 162.247 29.5441ZM161.75 20.6064C160.438 20.6064 159.232 21.7413 159.232 23.3373V25.1462C159.232 26.5648 160.331 27.7353 161.715 27.7353C163.417 27.7353 164.446 26.352 164.446 24.1176C164.446 22.0251 163.382 20.6064 161.75 20.6064Z" fill="white"/>
<path d="M172.461 29.2958H170.191V14.2932H172.461V29.2958Z" fill="white"/>
<path d="M184.875 24.7206H178.03C178.065 26.6713 179.377 27.7708 181.257 27.7708C182.286 27.7708 183.208 27.5935 184.023 27.2743L184.378 28.8703C183.421 29.2959 182.25 29.5087 180.938 29.5087C177.71 29.5087 175.831 27.4871 175.831 24.3305C175.831 21.1739 177.781 18.7976 180.69 18.7976C183.314 18.7976 184.981 20.7483 184.981 23.6921C184.981 24.0822 184.946 24.4369 184.875 24.7206ZM182.782 23.0891C182.782 21.4931 181.966 20.3936 180.512 20.3936C179.2 20.3936 178.171 21.5286 178.03 23.0891H182.782Z" fill="white"/>
<path d="M198.742 29.5441C195.728 29.5441 193.777 27.3097 193.777 24.2595C193.777 21.0674 195.763 18.833 198.92 18.833C201.863 18.833 203.885 20.961 203.885 24.1176C203.85 27.2742 201.828 29.5441 198.742 29.5441ZM198.813 20.4645C197.146 20.4645 196.118 22.0251 196.118 24.1531C196.118 26.2811 197.182 27.8062 198.813 27.8062C200.409 27.8062 201.509 26.1392 201.509 24.1176C201.509 22.0251 200.445 20.4645 198.813 20.4645Z" fill="white"/>
<path d="M216.156 29.2959H213.887V23.3729C213.887 21.564 213.177 20.6419 211.829 20.6419C210.482 20.6419 209.524 21.8123 209.524 23.1601V29.2604H207.254V21.9542C207.254 21.032 207.219 20.0744 207.183 19.0104H209.205L209.311 20.6064H209.382C209.985 19.5069 211.262 18.7976 212.645 18.7976C214.809 18.7976 216.227 20.4646 216.227 23.1246L216.156 29.2959Z" fill="white"/>
<path d="M231.124 20.7128H228.606V25.7137C228.606 26.9905 229.031 27.6289 229.953 27.6289C230.343 27.6289 230.698 27.5935 230.982 27.5225L231.053 29.2604C230.592 29.4378 230.024 29.5087 229.279 29.5087C227.471 29.5087 226.407 28.5156 226.407 25.9265V20.7128H224.917V19.0104H226.407V17.1307L228.641 16.4568V19.0104H231.159V20.7128H231.124Z" fill="white"/>
<path d="M243.218 29.2958H240.913V23.4437C240.913 21.5994 240.203 20.6773 238.856 20.6773C237.685 20.6773 236.586 21.493 236.586 23.1245V29.3313H234.28V14.2932H236.586V20.4645H236.621C237.331 19.3295 238.395 18.7975 239.707 18.7975C241.87 18.7975 243.218 20.5 243.218 23.1955V29.2958Z" fill="white"/>
<path d="M254.887 24.7206H248.042C248.077 26.6713 249.389 27.7708 251.269 27.7708C252.298 27.7708 253.22 27.5935 254.036 27.2743L254.39 28.8703C253.433 29.2959 252.262 29.5087 250.95 29.5087C247.722 29.5087 245.843 27.4871 245.843 24.3305C245.843 21.1739 247.793 18.7976 250.702 18.7976C253.326 18.7976 254.993 20.7483 254.993 23.6921C254.958 24.0822 254.958 24.4369 254.887 24.7206ZM252.794 23.0891C252.794 21.4931 251.978 20.3936 250.524 20.3936C249.212 20.3936 248.183 21.5286 248.042 23.0891H252.794Z" fill="white"/>
</svg>
